solid OpenSCAD_Model
  facet normal -1 0 0
    outer loop
      vertex 200 0 240
      vertex 200 200 390
      vertex 200 200 240
    endloop
  endfacet
  facet normal -1 -0 0
    outer loop
      vertex 200 200 390
      vertex 200 0 240
      vertex 200 0 390
    endloop
  endfacet
  facet normal -1 0 0
    outer loop
      vertex 200 -200 240
      vertex 200 -20 390
      vertex 200 -20 240
    endloop
  endfacet
  facet normal -1 -0 0
    outer loop
      vertex 200 -20 390
      vertex 200 -200 240
      vertex 200 -200 390
    endloop
  endfacet
  facet normal 1 -0 0
    outer loop
      vertex 200 -20 540
      vertex 200 0 390
      vertex 200 0 540
    endloop
  endfacet
  facet normal 1 0 0
    outer loop
      vertex 200 0 390
      vertex 200 -20 540
      vertex 200 -20 390
    endloop
  endfacet
  facet normal -0 0 1
    outer loop
      vertex -200 0 540
      vertex 200 -20 540
      vertex 200 0 540
    endloop
  endfacet
  facet normal 0 0 1
    outer loop
      vertex 200 -20 540
      vertex -200 0 540
      vertex -200 -20 540
    endloop
  endfacet
  facet normal 0 0 -1
    outer loop
      vertex -215 -200 240
      vertex -200 -20 240
      vertex -200 -200 240
    endloop
  endfacet
  facet normal -0 0 -1
    outer loop
      vertex -200 -20 240
      vertex -215 -200 240
      vertex -200 0 240
    endloop
  endfacet
  facet normal 0 0 -1
    outer loop
      vertex -215 200 240
      vertex -200 0 240
      vertex -215 -200 240
    endloop
  endfacet
  facet normal 0 0 -1
    outer loop
      vertex -200 0 240
      vertex -215 200 240
      vertex -200 200 240
    endloop
  endfacet
  facet normal -0 0 1
    outer loop
      vertex -200 200 240
      vertex 200 0 240
      vertex 200 200 240
    endloop
  endfacet
  facet normal 0 0 1
    outer loop
      vertex 200 0 240
      vertex -200 200 240
      vertex -200 0 240
    endloop
  endfacet
  facet normal -0 0 1
    outer loop
      vertex -200 -20 240
      vertex 200 -200 240
      vertex 200 -20 240
    endloop
  endfacet
  facet normal 0 0 1
    outer loop
      vertex 200 -200 240
      vertex -200 -20 240
      vertex -200 -200 240
    endloop
  endfacet
  facet normal 1 -0 0
    outer loop
      vertex -200 0 390
      vertex -200 200 240
      vertex -200 200 390
    endloop
  endfacet
  facet normal 1 0 0
    outer loop
      vertex -200 200 240
      vertex -200 0 390
      vertex -200 0 240
    endloop
  endfacet
  facet normal 1 -0 0
    outer loop
      vertex -200 -200 390
      vertex -200 -20 240
      vertex -200 -20 390
    endloop
  endfacet
  facet normal 1 0 0
    outer loop
      vertex -200 -20 240
      vertex -200 -200 390
      vertex -200 -200 240
    endloop
  endfacet
  facet normal -1 0 0
    outer loop
      vertex -200 -20 390
      vertex -200 0 540
      vertex -200 0 390
    endloop
  endfacet
  facet normal -1 -0 0
    outer loop
      vertex -200 0 540
      vertex -200 -20 390
      vertex -200 -20 540
    endloop
  endfacet
  facet normal 0 1 -0
    outer loop
      vertex 200 0 390
      vertex -200 0 540
      vertex 200 0 540
    endloop
  endfacet
  facet normal 0 1 0
    outer loop
      vertex 200 0 390
      vertex -200 0 390
      vertex -200 0 540
    endloop
  endfacet
  facet normal 0 1 -0
    outer loop
      vertex 200 0 240
      vertex -200 0 390
      vertex 200 0 390
    endloop
  endfacet
  facet normal 0 1 0
    outer loop
      vertex -200 0 390
      vertex 200 0 240
      vertex -200 0 240
    endloop
  endfacet
  facet normal 0 -1 0
    outer loop
      vertex -200 -20 390
      vertex 200 -20 540
      vertex -200 -20 540
    endloop
  endfacet
  facet normal 0 -1 0
    outer loop
      vertex -200 -20 390
      vertex 200 -20 390
      vertex 200 -20 540
    endloop
  endfacet
  facet normal 0 -1 0
    outer loop
      vertex -200 -20 240
      vertex 200 -20 390
      vertex -200 -20 390
    endloop
  endfacet
  facet normal 0 -1 -0
    outer loop
      vertex 200 -20 390
      vertex -200 -20 240
      vertex 200 -20 240
    endloop
  endfacet
  facet normal 1 -0 0
    outer loop
      vertex 200 0 240
      vertex 200 200 200
      vertex 200 200 240
    endloop
  endfacet
  facet normal 1 0 0
    outer loop
      vertex 200 -200 200
      vertex 200 0 240
      vertex 200 -20 240
    endloop
  endfacet
  facet normal 1 0 0
    outer loop
      vertex 200 -200 200
      vertex 200 -20 240
      vertex 200 -200 240
    endloop
  endfacet
  facet normal 1 0 0
    outer loop
      vertex 200 0 240
      vertex 200 -200 200
      vertex 200 200 200
    endloop
  endfacet
  facet normal 0 0 -1
    outer loop
      vertex -170 -140 200
      vertex -140 140 200
      vertex -140 -140 200
    endloop
  endfacet
  facet normal -0 0 -1
    outer loop
      vertex -140 140 200
      vertex -170 -140 200
      vertex -170 140 200
    endloop
  endfacet
  facet normal 0 0 -1
    outer loop
      vertex 140 -140 200
      vertex 170 140 200
      vertex 170 -140 200
    endloop
  endfacet
  facet normal -0 0 -1
    outer loop
      vertex 170 140 200
      vertex 140 -140 200
      vertex 140 140 200
    endloop
  endfacet
  facet normal 0 0 -1
    outer loop
      vertex 170 -140 200
      vertex 200 -200 200
      vertex 170 -170 200
    endloop
  endfacet
  facet normal 0 0 -1
    outer loop
      vertex 200 -200 200
      vertex 140 -170 200
      vertex 170 -170 200
    endloop
  endfacet
  facet normal 0 0 -1
    outer loop
      vertex -140 -140 200
      vertex 140 -140 200
      vertex 140 -170 200
    endloop
  endfacet
  facet normal 0 0 -1
    outer loop
      vertex 140 -140 200
      vertex -140 -140 200
      vertex 140 140 200
    endloop
  endfacet
  facet normal 0 0 -1
    outer loop
      vertex -140 -140 200
      vertex 140 -170 200
      vertex -140 -170 200
    endloop
  endfacet
  facet normal 0 0 -1
    outer loop
      vertex 200 -200 200
      vertex -140 -170 200
      vertex 140 -170 200
    endloop
  endfacet
  facet normal 0 0 -1
    outer loop
      vertex -200 -200 200
      vertex -140 -170 200
      vertex 200 -200 200
    endloop
  endfacet
  facet normal 0 0 -1
    outer loop
      vertex -200 -200 200
      vertex -170 -140 200
      vertex -170 -170 200
    endloop
  endfacet
  facet normal -0 0 -1
    outer loop
      vertex -170 -140 200
      vertex -200 -200 200
      vertex -170 140 200
    endloop
  endfacet
  facet normal 0 0 -1
    outer loop
      vertex -200 200 200
      vertex -170 140 200
      vertex -200 -200 200
    endloop
  endfacet
  facet normal -0 0 -1
    outer loop
      vertex -140 -170 200
      vertex -200 -200 200
      vertex -170 -170 200
    endloop
  endfacet
  facet normal 0 0 -1
    outer loop
      vertex 200 -200 200
      vertex 170 -140 200
      vertex 200 200 200
    endloop
  endfacet
  facet normal 0 0 -1
    outer loop
      vertex 170 140 200
      vertex 200 200 200
      vertex 170 -140 200
    endloop
  endfacet
  facet normal 0 0 -1
    outer loop
      vertex 170 170 200
      vertex 200 200 200
      vertex 170 140 200
    endloop
  endfacet
  facet normal 0 0 -1
    outer loop
      vertex 140 170 200
      vertex 200 200 200
      vertex 170 170 200
    endloop
  endfacet
  facet normal 0 0 -1
    outer loop
      vertex -140 140 200
      vertex 140 140 200
      vertex -140 -140 200
    endloop
  endfacet
  facet normal 0 0 -1
    outer loop
      vertex 140 140 200
      vertex -140 140 200
      vertex 140 170 200
    endloop
  endfacet
  facet normal 0 0 -1
    outer loop
      vertex -140 170 200
      vertex 140 170 200
      vertex -140 140 200
    endloop
  endfacet
  facet normal 0 0 -1
    outer loop
      vertex 140 170 200
      vertex -140 170 200
      vertex 200 200 200
    endloop
  endfacet
  facet normal 0 0 -1
    outer loop
      vertex -200 200 200
      vertex -140 170 200
      vertex -170 170 200
    endloop
  endfacet
  facet normal 0 0 -1
    outer loop
      vertex -140 170 200
      vertex -200 200 200
      vertex 200 200 200
    endloop
  endfacet
  facet normal 0 0 -1
    outer loop
      vertex -170 140 200
      vertex -200 200 200
      vertex -170 170 200
    endloop
  endfacet
  facet normal -1 0 0
    outer loop
      vertex -200 200 200
      vertex -200 0 240
      vertex -200 200 240
    endloop
  endfacet
  facet normal -1 0 0
    outer loop
      vertex -200 -200 200
      vertex -200 0 240
      vertex -200 200 200
    endloop
  endfacet
  facet normal -1 -0 0
    outer loop
      vertex -200 0 240
      vertex -200 -200 200
      vertex -200 -20 240
    endloop
  endfacet
  facet normal -1 -0 0
    outer loop
      vertex -200 -20 240
      vertex -200 -200 200
      vertex -200 -200 240
    endloop
  endfacet
  facet normal 0 1 -0
    outer loop
      vertex 200 200 200
      vertex -200 200 240
      vertex 200 200 240
    endloop
  endfacet
  facet normal 0 1 0
    outer loop
      vertex -200 200 240
      vertex 200 200 200
      vertex -200 200 200
    endloop
  endfacet
  facet normal 0 -1 0
    outer loop
      vertex -200 -200 200
      vertex 200 -200 240
      vertex -200 -200 240
    endloop
  endfacet
  facet normal 0 -1 -0
    outer loop
      vertex 200 -200 240
      vertex -200 -200 200
      vertex 200 -200 200
    endloop
  endfacet
  facet normal 1 -0 0
    outer loop
      vertex -140 -170 200
      vertex -140 -140 0
      vertex -140 -140 200
    endloop
  endfacet
  facet normal 1 0 0
    outer loop
      vertex -140 -140 0
      vertex -140 -170 200
      vertex -140 -170 0
    endloop
  endfacet
  facet normal 0 0 -1
    outer loop
      vertex -170 -170 0
      vertex -140 -140 0
      vertex -140 -170 0
    endloop
  endfacet
  facet normal -0 0 -1
    outer loop
      vertex -140 -140 0
      vertex -170 -170 0
      vertex -170 -140 0
    endloop
  endfacet
  facet normal -1 0 0
    outer loop
      vertex -170 -170 0
      vertex -170 -140 200
      vertex -170 -140 0
    endloop
  endfacet
  facet normal -1 -0 0
    outer loop
      vertex -170 -140 200
      vertex -170 -170 0
      vertex -170 -170 200
    endloop
  endfacet
  facet normal 0 1 -0
    outer loop
      vertex -140 -140 0
      vertex -170 -140 200
      vertex -140 -140 200
    endloop
  endfacet
  facet normal 0 1 0
    outer loop
      vertex -170 -140 200
      vertex -140 -140 0
      vertex -170 -140 0
    endloop
  endfacet
  facet normal 0 -1 0
    outer loop
      vertex -170 -170 0
      vertex -140 -170 200
      vertex -170 -170 200
    endloop
  endfacet
  facet normal 0 -1 -0
    outer loop
      vertex -140 -170 200
      vertex -170 -170 0
      vertex -140 -170 0
    endloop
  endfacet
  facet normal 1 -0 0
    outer loop
      vertex 170 -170 200
      vertex 170 -140 0
      vertex 170 -140 200
    endloop
  endfacet
  facet normal 1 0 0
    outer loop
      vertex 170 -140 0
      vertex 170 -170 200
      vertex 170 -170 0
    endloop
  endfacet
  facet normal 0 0 -1
    outer loop
      vertex 140 -170 0
      vertex 170 -140 0
      vertex 170 -170 0
    endloop
  endfacet
  facet normal -0 0 -1
    outer loop
      vertex 170 -140 0
      vertex 140 -170 0
      vertex 140 -140 0
    endloop
  endfacet
  facet normal -1 0 0
    outer loop
      vertex 140 -170 0
      vertex 140 -140 200
      vertex 140 -140 0
    endloop
  endfacet
  facet normal -1 -0 0
    outer loop
      vertex 140 -140 200
      vertex 140 -170 0
      vertex 140 -170 200
    endloop
  endfacet
  facet normal 0 1 -0
    outer loop
      vertex 170 -140 0
      vertex 140 -140 200
      vertex 170 -140 200
    endloop
  endfacet
  facet normal 0 1 0
    outer loop
      vertex 140 -140 200
      vertex 170 -140 0
      vertex 140 -140 0
    endloop
  endfacet
  facet normal 0 -1 0
    outer loop
      vertex 140 -170 0
      vertex 170 -170 200
      vertex 140 -170 200
    endloop
  endfacet
  facet normal 0 -1 -0
    outer loop
      vertex 170 -170 200
      vertex 140 -170 0
      vertex 170 -170 0
    endloop
  endfacet
  facet normal 1 -0 0
    outer loop
      vertex -140 140 200
      vertex -140 170 0
      vertex -140 170 200
    endloop
  endfacet
  facet normal 1 0 0
    outer loop
      vertex -140 170 0
      vertex -140 140 200
      vertex -140 140 0
    endloop
  endfacet
  facet normal 0 0 -1
    outer loop
      vertex -170 140 0
      vertex -140 170 0
      vertex -140 140 0
    endloop
  endfacet
  facet normal -0 0 -1
    outer loop
      vertex -140 170 0
      vertex -170 140 0
      vertex -170 170 0
    endloop
  endfacet
  facet normal -1 0 0
    outer loop
      vertex -170 140 0
      vertex -170 170 200
      vertex -170 170 0
    endloop
  endfacet
  facet normal -1 -0 0
    outer loop
      vertex -170 170 200
      vertex -170 140 0
      vertex -170 140 200
    endloop
  endfacet
  facet normal 0 1 -0
    outer loop
      vertex -140 170 0
      vertex -170 170 200
      vertex -140 170 200
    endloop
  endfacet
  facet normal 0 1 0
    outer loop
      vertex -170 170 200
      vertex -140 170 0
      vertex -170 170 0
    endloop
  endfacet
  facet normal 0 -1 0
    outer loop
      vertex -170 140 0
      vertex -140 140 200
      vertex -170 140 200
    endloop
  endfacet
  facet normal 0 -1 -0
    outer loop
      vertex -140 140 200
      vertex -170 140 0
      vertex -140 140 0
    endloop
  endfacet
  facet normal 1 -0 0
    outer loop
      vertex 170 140 200
      vertex 170 170 0
      vertex 170 170 200
    endloop
  endfacet
  facet normal 1 0 0
    outer loop
      vertex 170 170 0
      vertex 170 140 200
      vertex 170 140 0
    endloop
  endfacet
  facet normal 0 0 -1
    outer loop
      vertex 140 140 0
      vertex 170 170 0
      vertex 170 140 0
    endloop
  endfacet
  facet normal -0 0 -1
    outer loop
      vertex 170 170 0
      vertex 140 140 0
      vertex 140 170 0
    endloop
  endfacet
  facet normal -1 0 0
    outer loop
      vertex 140 140 0
      vertex 140 170 200
      vertex 140 170 0
    endloop
  endfacet
  facet normal -1 -0 0
    outer loop
      vertex 140 170 200
      vertex 140 140 0
      vertex 140 140 200
    endloop
  endfacet
  facet normal 0 1 -0
    outer loop
      vertex 170 170 0
      vertex 140 170 200
      vertex 170 170 200
    endloop
  endfacet
  facet normal 0 1 0
    outer loop
      vertex 140 170 200
      vertex 170 170 0
      vertex 140 170 0
    endloop
  endfacet
  facet normal 0 -1 0
    outer loop
      vertex 140 140 0
      vertex 170 140 200
      vertex 140 140 200
    endloop
  endfacet
  facet normal 0 -1 -0
    outer loop
      vertex 170 140 200
      vertex 140 140 0
      vertex 170 140 0
    endloop
  endfacet
  facet normal -0 0 1
    outer loop
      vertex -215 200 390
      vertex -200 0 390
      vertex -200 200 390
    endloop
  endfacet
  facet normal 0 0 1
    outer loop
      vertex -200 0 390
      vertex -215 200 390
      vertex -200 -20 390
    endloop
  endfacet
  facet normal 0 0 1
    outer loop
      vertex -215 -200 390
      vertex -200 -20 390
      vertex -215 200 390
    endloop
  endfacet
  facet normal 0 0 1
    outer loop
      vertex -200 -20 390
      vertex -215 -200 390
      vertex -200 -200 390
    endloop
  endfacet
  facet normal -1 0 0
    outer loop
      vertex -215 -200 240
      vertex -215 200 390
      vertex -215 200 240
    endloop
  endfacet
  facet normal -1 -0 0
    outer loop
      vertex -215 200 390
      vertex -215 -200 240
      vertex -215 -200 390
    endloop
  endfacet
  facet normal 0 1 -0
    outer loop
      vertex -200 200 240
      vertex -215 200 390
      vertex -200 200 390
    endloop
  endfacet
  facet normal 0 1 0
    outer loop
      vertex -215 200 390
      vertex -200 200 240
      vertex -215 200 240
    endloop
  endfacet
  facet normal 0 -1 0
    outer loop
      vertex -215 -200 240
      vertex -200 -200 390
      vertex -215 -200 390
    endloop
  endfacet
  facet normal 0 -1 -0
    outer loop
      vertex -200 -200 390
      vertex -215 -200 240
      vertex -200 -200 240
    endloop
  endfacet
  facet normal 1 -0 0
    outer loop
      vertex 215 -200 390
      vertex 215 200 240
      vertex 215 200 390
    endloop
  endfacet
  facet normal 1 0 0
    outer loop
      vertex 215 200 240
      vertex 215 -200 390
      vertex 215 -200 240
    endloop
  endfacet
  facet normal 0 0 1
    outer loop
      vertex 200 0 390
      vertex 215 200 390
      vertex 200 200 390
    endloop
  endfacet
  facet normal 0 0 1
    outer loop
      vertex 215 200 390
      vertex 200 0 390
      vertex 215 -200 390
    endloop
  endfacet
  facet normal -0 0 1
    outer loop
      vertex 200 -20 390
      vertex 215 -200 390
      vertex 200 0 390
    endloop
  endfacet
  facet normal 0 0 1
    outer loop
      vertex 215 -200 390
      vertex 200 -20 390
      vertex 200 -200 390
    endloop
  endfacet
  facet normal 0 0 -1
    outer loop
      vertex 200 -20 240
      vertex 215 -200 240
      vertex 200 -200 240
    endloop
  endfacet
  facet normal 0 0 -1
    outer loop
      vertex 215 -200 240
      vertex 200 -20 240
      vertex 215 200 240
    endloop
  endfacet
  facet normal 0 0 -1
    outer loop
      vertex 200 0 240
      vertex 215 200 240
      vertex 200 -20 240
    endloop
  endfacet
  facet normal -0 0 -1
    outer loop
      vertex 215 200 240
      vertex 200 0 240
      vertex 200 200 240
    endloop
  endfacet
  facet normal 0 1 -0
    outer loop
      vertex 215 200 240
      vertex 200 200 390
      vertex 215 200 390
    endloop
  endfacet
  facet normal 0 1 0
    outer loop
      vertex 200 200 390
      vertex 215 200 240
      vertex 200 200 240
    endloop
  endfacet
  facet normal 0 -1 0
    outer loop
      vertex 200 -200 240
      vertex 215 -200 390
      vertex 200 -200 390
    endloop
  endfacet
  facet normal 0 -1 -0
    outer loop
      vertex 215 -200 390
      vertex 200 -200 240
      vertex 215 -200 240
    endloop
  endfacet
endsolid OpenSCAD_Model
